<svg xmlns="http://www.w3.org/2000/svg" xmlns:xlink="http://www.w3.org/1999/xlink" width="2000" zoomAndPan="magnify" viewBox="0 0 1500 1499.999933" height="2000" preserveAspectRatio="xMidYMid meet" version="1.0"><defs><clipPath id="b2a08762d1"><path d="M 46 75.691406 L 1304.914062 75.691406 L 1304.914062 1334.609375 L 46 1334.609375 Z M 46 75.691406 " clip-rule="nonzero"/></clipPath><clipPath id="18467ba10c"><path d="M 675.457031 75.691406 C 327.8125 75.691406 45.996094 357.507812 45.996094 705.148438 C 45.996094 1052.789062 327.8125 1334.609375 675.457031 1334.609375 C 1023.09375 1334.609375 1304.914062 1052.789062 1304.914062 705.148438 C 1304.914062 357.507812 1023.09375 75.691406 675.457031 75.691406 Z M 675.457031 75.691406 " clip-rule="nonzero"/></clipPath><clipPath id="575b4eefe9"><path d="M 675.457031 75.691406 C 327.8125 75.691406 46 357.507812 46 705.148438 C 46 1052.789062 327.8125 1334.609375 675.457031 1334.609375 C 1023.09375 1334.609375 1304.914062 1052.789062 1304.914062 705.148438 C 1304.914062 357.507812 1023.09375 75.691406 675.457031 75.691406 Z M 675.457031 75.691406 " clip-rule="nonzero"/></clipPath><clipPath id="7ad14c5312"><path d="M 45.996094 75.691406 L 1304.800781 75.691406 L 1304.800781 1334.488281 L 45.996094 1334.488281 Z M 45.996094 75.691406 " clip-rule="nonzero"/></clipPath><clipPath id="0c55593bb6"><path d="M 675.457031 75.691406 C 327.8125 75.691406 45.996094 357.507812 45.996094 705.148438 C 45.996094 1052.789062 327.8125 1334.605469 675.457031 1334.605469 C 1023.09375 1334.605469 1304.914062 1052.789062 1304.914062 705.148438 C 1304.914062 357.507812 1023.09375 75.691406 675.457031 75.691406 Z M 675.457031 75.691406 " clip-rule="nonzero"/></clipPath><clipPath id="8ca80e052d"><path d="M 43.386719 70.335938 L 1310.253906 70.335938 L 1310.253906 1337.203125 L 43.386719 1337.203125 Z M 43.386719 70.335938 " clip-rule="nonzero"/></clipPath><clipPath id="e807b61e37"><path d="M 676.820312 70.335938 C 326.984375 70.335938 43.386719 353.933594 43.386719 703.769531 C 43.386719 1053.605469 326.984375 1337.203125 676.820312 1337.203125 C 1026.660156 1337.203125 1310.253906 1053.605469 1310.253906 703.769531 C 1310.253906 353.933594 1026.660156 70.335938 676.820312 70.335938 Z M 676.820312 70.335938 " clip-rule="nonzero"/></clipPath><clipPath id="e348be7a57"><path d="M 227 260.136719 L 1112.738281 260.136719 L 1112.738281 1146.839844 L 227 1146.839844 Z M 227 260.136719 " clip-rule="nonzero"/></clipPath><clipPath id="4474554307"><path d="M 151.8125 352.109375 L 1021.136719 185.390625 L 1187.855469 1054.714844 L 318.53125 1221.433594 Z M 151.8125 352.109375 " clip-rule="nonzero"/></clipPath><clipPath id="3722e92fdd"><path d="M 586.472656 268.75 C 346.414062 314.789062 189.132812 546.714844 235.167969 786.773438 C 281.210938 1026.832031 513.132812 1184.113281 753.195312 1138.078125 C 993.25 1092.035156 1150.535156 860.113281 1104.496094 620.050781 C 1058.457031 379.996094 826.53125 222.710938 586.472656 268.75 Z M 586.472656 268.75 " clip-rule="nonzero"/></clipPath><clipPath id="ba02958f3a"><path d="M 151.8125 352.109375 L 1021.136719 185.390625 L 1187.855469 1054.714844 L 318.53125 1221.433594 Z M 151.8125 352.109375 " clip-rule="nonzero"/></clipPath><clipPath id="4bbf69dd78"><path d="M 586.472656 268.75 C 346.414062 314.789062 189.132812 546.714844 235.167969 786.773438 C 281.210938 1026.832031 513.132812 1184.113281 753.195312 1138.078125 C 993.25 1092.035156 1150.535156 860.113281 1104.496094 620.050781 C 1058.457031 379.996094 826.53125 222.710938 586.472656 268.75 Z M 586.472656 268.75 " clip-rule="nonzero"/></clipPath><clipPath id="7a3b481b50"><path d="M 227 260.136719 L 1112.738281 260.136719 L 1112.738281 1146.839844 L 227 1146.839844 Z M 227 260.136719 " clip-rule="nonzero"/></clipPath><clipPath id="fb7b6e688f"><path d="M 151.8125 352.109375 L 1021.148438 185.386719 L 1187.871094 1054.726562 L 318.53125 1221.449219 Z M 151.8125 352.109375 " clip-rule="nonzero"/></clipPath><clipPath id="fce5ff5af6"><path d="M 151.8125 352.109375 L 1021.136719 185.390625 L 1187.855469 1054.714844 L 318.53125 1221.433594 Z M 151.8125 352.109375 " clip-rule="nonzero"/></clipPath><clipPath id="8b5821907a"><path d="M 586.472656 268.75 C 346.414062 314.789062 189.132812 546.714844 235.167969 786.769531 C 281.210938 1026.832031 513.132812 1184.113281 753.195312 1138.074219 C 993.25 1092.035156 1150.535156 860.113281 1104.496094 620.050781 C 1058.457031 379.996094 826.53125 222.710938 586.472656 268.75 Z M 586.472656 268.75 " clip-rule="nonzero"/></clipPath><clipPath id="cb7ef56b2f"><path d="M 387.0625 551.511719 L 621.730469 551.511719 L 621.730469 786.179688 L 387.0625 786.179688 Z M 387.0625 551.511719 " clip-rule="nonzero"/></clipPath><clipPath id="69828823c7"><path d="M 504.398438 551.511719 C 439.597656 551.511719 387.0625 604.042969 387.0625 668.84375 C 387.0625 733.644531 439.597656 786.179688 504.398438 786.179688 C 569.199219 786.179688 621.730469 733.644531 621.730469 668.84375 C 621.730469 604.042969 569.199219 551.511719 504.398438 551.511719 Z M 504.398438 551.511719 " clip-rule="nonzero"/></clipPath><clipPath id="45cbd10669"><path d="M 504.398438 551.511719 C 439.597656 551.511719 387.0625 604.042969 387.0625 668.84375 C 387.0625 733.644531 439.597656 786.179688 504.398438 786.179688 C 569.199219 786.179688 621.730469 733.644531 621.730469 668.84375 C 621.730469 604.042969 569.199219 551.511719 504.398438 551.511719 Z M 504.398438 551.511719 " clip-rule="nonzero"/></clipPath><clipPath id="2cb1d10a76"><path d="M 387.0625 551.511719 L 621.71875 551.511719 L 621.71875 786.167969 L 387.0625 786.167969 Z M 387.0625 551.511719 " clip-rule="nonzero"/></clipPath><clipPath id="ed02b29f4c"><path d="M 504.390625 551.511719 C 439.59375 551.511719 387.0625 604.042969 387.0625 668.839844 C 387.0625 733.636719 439.59375 786.167969 504.390625 786.167969 C 569.191406 786.167969 621.71875 733.636719 621.71875 668.839844 C 621.71875 604.042969 569.191406 551.511719 504.390625 551.511719 Z M 504.390625 551.511719 " clip-rule="nonzero"/></clipPath><clipPath id="8ff9f871cb"><path d="M 700.550781 551.511719 L 935.21875 551.511719 L 935.21875 786.179688 L 700.550781 786.179688 Z M 700.550781 551.511719 " clip-rule="nonzero"/></clipPath><clipPath id="00800e6d2d"><path d="M 817.882812 551.511719 C 753.082031 551.511719 700.550781 604.042969 700.550781 668.84375 C 700.550781 733.644531 753.082031 786.179688 817.882812 786.179688 C 882.6875 786.179688 935.21875 733.644531 935.21875 668.84375 C 935.21875 604.042969 882.6875 551.511719 817.882812 551.511719 Z M 817.882812 551.511719 " clip-rule="nonzero"/></clipPath><clipPath id="dd34c81bf3"><path d="M 817.882812 551.511719 C 753.082031 551.511719 700.550781 604.042969 700.550781 668.84375 C 700.550781 733.644531 753.082031 786.179688 817.882812 786.179688 C 882.6875 786.179688 935.21875 733.644531 935.21875 668.84375 C 935.21875 604.042969 882.6875 551.511719 817.882812 551.511719 Z M 817.882812 551.511719 " clip-rule="nonzero"/></clipPath><clipPath id="d6b7089cde"><path d="M 700.550781 551.511719 L 935.203125 551.511719 L 935.203125 786.167969 L 700.550781 786.167969 Z M 700.550781 551.511719 " clip-rule="nonzero"/></clipPath><clipPath id="a233bb7b55"><path d="M 817.875 551.511719 C 753.082031 551.511719 700.550781 604.042969 700.550781 668.839844 C 700.550781 733.636719 753.082031 786.167969 817.875 786.167969 C 882.671875 786.167969 935.203125 733.636719 935.203125 668.839844 C 935.203125 604.042969 882.671875 551.511719 817.875 551.511719 Z M 817.875 551.511719 " clip-rule="nonzero"/></clipPath><clipPath id="dc5ec97062"><path d="M 365.519531 976.46875 L 569.851562 976.46875 L 569.851562 1191.90625 L 365.519531 1191.90625 Z M 365.519531 976.46875 " clip-rule="nonzero"/></clipPath><clipPath id="ffedc31168"><path d="M 481.785156 1248.597656 L 277.597656 1135.09375 L 365.648438 976.691406 L 569.839844 1090.195312 Z M 481.785156 1248.597656 " clip-rule="nonzero"/></clipPath><clipPath id="3016b6bb47"><path d="M 379.71875 1191.863281 L 365.707031 976.726562 L 569.839844 1090.195312 Z M 379.71875 1191.863281 " clip-rule="nonzero"/></clipPath><clipPath id="13ef384559"><path d="M 481.785156 1248.597656 L 277.597656 1135.09375 L 365.648438 976.691406 L 569.839844 1090.195312 Z M 481.785156 1248.597656 " clip-rule="nonzero"/></clipPath><clipPath id="83a9e43700"><path d="M 379.71875 1191.863281 L 365.707031 976.726562 L 569.839844 1090.195312 Z M 379.71875 1191.863281 " clip-rule="nonzero"/></clipPath><clipPath id="5001438015"><path d="M 365 976.320312 L 570 976.320312 L 570 1191.90625 L 365 1191.90625 Z M 365 976.320312 " clip-rule="nonzero"/></clipPath><clipPath id="b102c938c6"><path d="M 481.785156 1248.597656 L 277.382812 1134.980469 L 365.261719 976.886719 L 569.660156 1090.507812 Z M 481.785156 1248.597656 " clip-rule="nonzero"/></clipPath><clipPath id="65a165af03"><path d="M 481.78125 1248.59375 L 277.664062 1135.132812 L 366.308594 975.667969 L 570.421875 1089.128906 Z M 481.78125 1248.59375 " clip-rule="nonzero"/></clipPath><clipPath id="6e30d2d545"><path d="M 379.726562 1191.863281 L 365.707031 976.746094 L 569.824219 1090.203125 Z M 379.726562 1191.863281 " clip-rule="nonzero"/></clipPath><clipPath id="f36d7af448"><path d="M 1115.171875 1055 L 1324 1055 L 1324 1236.972656 L 1115.171875 1236.972656 Z M 1115.171875 1055 " clip-rule="nonzero"/></clipPath><clipPath id="d797fac933"><path d="M 1159.0625 1029.875 L 1348.140625 1171.683594 L 1280.539062 1261.820312 L 1091.464844 1120.011719 Z M 1159.0625 1029.875 " clip-rule="nonzero"/></clipPath><clipPath id="d98faba287"><path d="M 1292.746094 1130.132812 C 1323.152344 1152.9375 1332.671875 1191.601562 1314.003906 1216.496094 C 1295.335938 1241.382812 1255.554688 1243.078125 1225.140625 1220.269531 L 1146.527344 1161.308594 C 1116.117188 1138.5 1106.59375 1099.835938 1125.265625 1074.945312 C 1143.929688 1050.054688 1183.714844 1048.363281 1214.125 1071.171875 Z M 1292.746094 1130.132812 " clip-rule="nonzero"/></clipPath><clipPath id="675ed40bc6"><path d="M 1159.0625 1029.875 L 1348.140625 1171.683594 L 1280.539062 1261.820312 L 1091.464844 1120.011719 Z M 1159.0625 1029.875 " clip-rule="nonzero"/></clipPath><clipPath id="80deeec0f6"><path d="M 1292.746094 1130.132812 C 1323.152344 1152.9375 1332.671875 1191.601562 1314.003906 1216.496094 C 1295.335938 1241.382812 1255.554688 1243.078125 1225.140625 1220.269531 L 1146.527344 1161.308594 C 1116.117188 1138.5 1106.59375 1099.835938 1125.265625 1074.945312 C 1143.929688 1050.054688 1183.714844 1048.363281 1214.125 1071.171875 Z M 1292.746094 1130.132812 " clip-rule="nonzero"/></clipPath><clipPath id="4063c13587"><path d="M 1245.5 1187.035156 L 1400 1187.035156 L 1400 1296.65625 L 1245.5 1296.65625 Z M 1245.5 1187.035156 " clip-rule="nonzero"/></clipPath><clipPath id="5ccd32f2ce"><path d="M 1266.257812 1168.371094 L 1415.230469 1249.761719 L 1379.054688 1315.972656 L 1230.085938 1234.582031 Z M 1266.257812 1168.371094 " clip-rule="nonzero"/></clipPath><clipPath id="e659a2264d"><path d="M 1354.628906 1216.652344 C 1387.988281 1234.878906 1406.933594 1264.472656 1396.941406 1282.757812 C 1386.953125 1301.042969 1351.8125 1301.089844 1318.457031 1282.863281 L 1290.480469 1267.582031 C 1257.121094 1249.351562 1238.183594 1219.757812 1248.167969 1201.476562 C 1258.160156 1183.191406 1293.296875 1183.144531 1326.652344 1201.371094 Z M 1354.628906 1216.652344 " clip-rule="nonzero"/></clipPath><clipPath id="815bf4b1ac"><path d="M 1266.257812 1168.371094 L 1415.230469 1249.761719 L 1379.054688 1315.972656 L 1230.085938 1234.582031 Z M 1266.257812 1168.371094 " clip-rule="nonzero"/></clipPath><clipPath id="c302eac223"><path d="M 1354.628906 1216.652344 C 1387.988281 1234.878906 1406.933594 1264.472656 1396.941406 1282.757812 C 1386.953125 1301.042969 1351.8125 1301.089844 1318.457031 1282.863281 L 1290.480469 1267.582031 C 1257.121094 1249.351562 1238.183594 1219.757812 1248.167969 1201.476562 C 1258.160156 1183.191406 1293.296875 1183.144531 1326.652344 1201.371094 Z M 1354.628906 1216.652344 " clip-rule="nonzero"/></clipPath><clipPath id="d8bb6966d0"><path d="M 411 893.449219 L 615.160156 893.449219 L 615.160156 1129 L 411 1129 Z M 411 893.449219 " clip-rule="nonzero"/></clipPath><clipPath id="ebc1247d38"><path d="M 515.859375 1185.550781 L 311.429688 1071.914062 L 410.71875 893.300781 L 615.148438 1006.9375 Z M 515.859375 1185.550781 " clip-rule="nonzero"/></clipPath><clipPath id="ad5a96de39"><path d="M 413.796875 1128.8125 L 411.015625 893.46875 L 615.148438 1006.9375 Z M 413.796875 1128.8125 " clip-rule="nonzero"/></clipPath><clipPath id="076dbbd03d"><path d="M 515.859375 1185.550781 L 311.429688 1071.914062 L 410.71875 893.300781 L 615.148438 1006.9375 Z M 515.859375 1185.550781 " clip-rule="nonzero"/></clipPath><clipPath id="20237a0b94"><path d="M 413.796875 1128.8125 L 411.015625 893.46875 L 615.148438 1006.9375 Z M 413.796875 1128.8125 " clip-rule="nonzero"/></clipPath><clipPath id="20f69c6676"><path d="M 1055.492188 1120.046875 L 1162.675781 1120.046875 L 1162.675781 1195 L 1055.492188 1195 Z M 1055.492188 1120.046875 " clip-rule="nonzero"/></clipPath><clipPath id="0f4cc33080"><path d="M 1067.785156 1111.179688 L 1170.519531 1167.3125 L 1150.675781 1203.640625 L 1047.9375 1147.511719 Z M 1067.785156 1111.179688 " clip-rule="nonzero"/></clipPath><clipPath id="e033cde3a9"><path d="M 1145.390625 1153.582031 C 1159.269531 1161.167969 1166.078125 1175.445312 1160.597656 1185.476562 C 1155.117188 1195.507812 1139.417969 1197.492188 1125.539062 1189.910156 L 1073.066406 1161.242188 C 1059.1875 1153.660156 1052.378906 1139.375 1057.859375 1129.347656 C 1063.34375 1119.316406 1079.039062 1117.328125 1092.917969 1124.914062 Z M 1145.390625 1153.582031 " clip-rule="nonzero"/></clipPath><clipPath id="86cb330327"><path d="M 1067.785156 1111.179688 L 1170.519531 1167.3125 L 1150.675781 1203.640625 L 1047.9375 1147.511719 Z M 1067.785156 1111.179688 " clip-rule="nonzero"/></clipPath><clipPath id="b6b382f840"><path d="M 1145.390625 1153.582031 C 1159.269531 1161.167969 1166.078125 1175.445312 1160.597656 1185.476562 C 1155.117188 1195.507812 1139.417969 1197.492188 1125.539062 1189.910156 L 1073.066406 1161.242188 C 1059.1875 1153.660156 1052.378906 1139.375 1057.859375 1129.347656 C 1063.34375 1119.316406 1079.039062 1117.328125 1092.917969 1124.914062 Z M 1145.390625 1153.582031 " clip-rule="nonzero"/></clipPath><clipPath id="8aa2e60d11"><path d="M 1042.09375 1043.3125 L 1199.214844 1043.3125 L 1199.214844 1149.277344 L 1042.09375 1149.277344 Z M 1042.09375 1043.3125 " clip-rule="nonzero"/></clipPath><clipPath id="46e3700f20"><path d="M 1062.09375 1024.542969 L 1213.878906 1100.558594 L 1180.09375 1168.019531 L 1028.308594 1092.003906 Z M 1062.09375 1024.542969 " clip-rule="nonzero"/></clipPath><clipPath id="444caaa17e"><path d="M 1152.136719 1069.636719 C 1186.125 1086.660156 1206.113281 1115.558594 1196.785156 1134.1875 C 1187.453125 1152.816406 1152.339844 1154.117188 1118.351562 1137.097656 L 1089.851562 1122.824219 C 1055.863281 1105.800781 1035.875 1076.902344 1045.207031 1058.269531 C 1054.535156 1039.644531 1089.648438 1038.339844 1123.636719 1055.363281 Z M 1152.136719 1069.636719 " clip-rule="nonzero"/></clipPath><clipPath id="2fd1dd685c"><path d="M 1062.09375 1024.542969 L 1213.878906 1100.558594 L 1180.09375 1168.019531 L 1028.308594 1092.003906 Z M 1062.09375 1024.542969 " clip-rule="nonzero"/></clipPath><clipPath id="54b288b36d"><path d="M 1152.136719 1069.636719 C 1186.125 1086.660156 1206.113281 1115.558594 1196.785156 1134.1875 C 1187.453125 1152.816406 1152.339844 1154.117188 1118.351562 1137.097656 L 1089.851562 1122.824219 C 1055.863281 1105.800781 1035.875 1076.902344 1045.207031 1058.269531 C 1054.535156 1039.644531 1089.648438 1038.339844 1123.636719 1055.363281 Z M 1152.136719 1069.636719 " clip-rule="nonzero"/></clipPath><clipPath id="1e2bc0aeef"><path d="M 1109.082031 986.066406 L 1205 986.066406 L 1205 1113.957031 L 1109.082031 1113.957031 Z M 1109.082031 986.066406 " clip-rule="nonzero"/></clipPath><clipPath id="6598358637"><path d="M 1141.847656 975.949219 L 1216.816406 1096.742188 L 1172.128906 1124.476562 L 1097.160156 1003.6875 Z M 1141.847656 975.949219 " clip-rule="nonzero"/></clipPath><clipPath id="36bb8ac508"><path d="M 1197.589844 1065.761719 C 1208.183594 1082.835938 1206.769531 1102.882812 1194.433594 1110.542969 C 1182.09375 1118.203125 1163.5 1110.574219 1152.902344 1093.496094 L 1116.347656 1034.601562 C 1105.753906 1017.523438 1107.167969 997.480469 1119.503906 989.820312 C 1131.84375 982.160156 1150.4375 989.789062 1161.035156 1006.867188 Z M 1197.589844 1065.761719 " clip-rule="nonzero"/></clipPath><clipPath id="5b3f7df650"><path d="M 1141.847656 975.949219 L 1216.816406 1096.742188 L 1172.128906 1124.476562 L 1097.160156 1003.6875 Z M 1141.847656 975.949219 " clip-rule="nonzero"/></clipPath><clipPath id="bc240a6a9b"><path d="M 1197.589844 1065.761719 C 1208.183594 1082.835938 1206.769531 1102.882812 1194.433594 1110.542969 C 1182.09375 1118.203125 1163.5 1110.574219 1152.902344 1093.496094 L 1116.347656 1034.601562 C 1105.753906 1017.523438 1107.167969 997.480469 1119.503906 989.820312 C 1131.84375 982.160156 1150.4375 989.789062 1161.035156 1006.867188 Z M 1197.589844 1065.761719 " clip-rule="nonzero"/></clipPath><clipPath id="f34a8beaa2"><path d="M 1104.210938 932 L 1197.996094 932 L 1197.996094 1061 L 1104.210938 1061 Z M 1104.210938 932 " clip-rule="nonzero"/></clipPath><clipPath id="a76bfddc93"><path d="M 1092.84375 1044.765625 L 1163.839844 921.601562 L 1209.402344 947.863281 L 1138.40625 1071.03125 Z M 1092.84375 1044.765625 " clip-rule="nonzero"/></clipPath><clipPath id="7ef186369d"><path d="M 1145.632812 953.1875 C 1155.667969 935.78125 1174 927.550781 1186.582031 934.800781 C 1199.164062 942.050781 1201.234375 962.042969 1191.195312 979.453125 L 1156.574219 1039.511719 C 1146.542969 1056.917969 1128.210938 1065.15625 1115.625 1057.898438 C 1103.042969 1050.648438 1100.976562 1030.65625 1111.011719 1013.246094 Z M 1145.632812 953.1875 " clip-rule="nonzero"/></clipPath><clipPath id="a9a2d0611a"><path d="M 1092.84375 1044.765625 L 1163.839844 921.601562 L 1209.402344 947.863281 L 1138.40625 1071.03125 Z M 1092.84375 1044.765625 " clip-rule="nonzero"/></clipPath><clipPath id="7684758ceb"><path d="M 1145.632812 953.1875 C 1155.667969 935.78125 1174 927.550781 1186.582031 934.800781 C 1199.164062 942.050781 1201.234375 962.042969 1191.195312 979.453125 L 1156.574219 1039.511719 C 1146.542969 1056.917969 1128.210938 1065.15625 1115.625 1057.898438 C 1103.039062 1050.648438 1100.976562 1030.65625 1111.011719 1013.246094 Z M 1145.632812 953.1875 " clip-rule="nonzero"/></clipPath><clipPath id="f92a795bea"><path d="M 1396.53125 1265 L 1480 1265 L 1480 1327.105469 L 1396.53125 1327.105469 Z M 1396.53125 1265 " clip-rule="nonzero"/></clipPath><clipPath id="c804743160"><path d="M 1392.304688 1319.824219 L 1406.289062 1261.558594 L 1486.40625 1280.789062 L 1472.421875 1339.050781 Z M 1392.304688 1319.824219 " clip-rule="nonzero"/></clipPath><clipPath id="913ec4635b"><path d="M 1413.066406 1324.808594 C 1426.667969 1328.070312 1440.886719 1327.757812 1454.335938 1323.890625 L 1470.277344 1319.308594 C 1474.757812 1318.019531 1478.199219 1314.421875 1479.289062 1309.890625 C 1480.375 1305.359375 1478.941406 1300.589844 1475.535156 1297.410156 L 1463.40625 1286.089844 C 1453.179688 1276.539062 1440.652344 1269.808594 1427.046875 1266.539062 C 1421.542969 1265.21875 1415.738281 1266.140625 1410.910156 1269.097656 C 1406.085938 1272.058594 1402.632812 1276.8125 1401.308594 1282.316406 L 1397.289062 1299.066406 C 1395.964844 1304.574219 1396.886719 1310.378906 1399.84375 1315.207031 C 1402.800781 1320.03125 1407.558594 1323.484375 1413.066406 1324.808594 Z M 1413.066406 1324.808594 " clip-rule="nonzero"/></clipPath><clipPath id="5f6ca01ff2"><path d="M 1392.304688 1319.824219 L 1406.289062 1261.558594 L 1486.40625 1280.789062 L 1472.421875 1339.050781 Z M 1392.304688 1319.824219 " clip-rule="nonzero"/></clipPath><clipPath id="6ee82c1e56"><path d="M 1413.066406 1324.808594 C 1426.667969 1328.070312 1440.886719 1327.757812 1454.335938 1323.890625 L 1470.277344 1319.308594 C 1474.757812 1318.019531 1478.199219 1314.421875 1479.289062 1309.890625 C 1480.375 1305.359375 1478.941406 1300.589844 1475.535156 1297.410156 L 1463.40625 1286.089844 C 1453.179688 1276.539062 1440.652344 1269.808594 1427.046875 1266.539062 C 1421.542969 1265.21875 1415.738281 1266.140625 1410.910156 1269.097656 C 1406.085938 1272.058594 1402.632812 1276.8125 1401.308594 1282.316406 L 1397.289062 1299.066406 C 1395.964844 1304.574219 1396.886719 1310.378906 1399.84375 1315.207031 C 1402.800781 1320.03125 1407.558594 1323.484375 1413.066406 1324.808594 Z M 1413.066406 1324.808594 " clip-rule="nonzero"/></clipPath><clipPath id="7f5c3220f3"><path d="M 327.128906 948 L 398.988281 948 L 398.988281 1029.914062 L 327.128906 1029.914062 Z M 327.128906 948 " clip-rule="nonzero"/></clipPath><clipPath id="5142a3b6a7"><path d="M 348.023438 939.875 L 407.652344 1014.558594 L 378.644531 1037.722656 L 319.011719 963.042969 Z M 348.023438 939.875 " clip-rule="nonzero"/></clipPath><clipPath id="1b2ace701e"><path d="M 392.695312 995.824219 C 400.921875 1006.125 401.09375 1019.660156 393.085938 1026.054688 C 385.074219 1032.453125 371.90625 1029.289062 363.6875 1018.988281 L 333.902344 981.691406 C 325.679688 971.390625 325.503906 957.855469 333.515625 951.457031 C 341.53125 945.0625 354.691406 948.226562 362.914062 958.527344 Z M 392.695312 995.824219 " clip-rule="nonzero"/></clipPath><clipPath id="77a683f797"><path d="M 348.023438 939.875 L 407.652344 1014.558594 L 378.644531 1037.722656 L 319.011719 963.042969 Z M 348.023438 939.875 " clip-rule="nonzero"/></clipPath><clipPath id="f713df69b2"><path d="M 392.695312 995.824219 C 400.921875 1006.125 401.09375 1019.660156 393.085938 1026.054688 C 385.074219 1032.453125 371.90625 1029.289062 363.6875 1018.988281 L 333.902344 981.691406 C 325.679688 971.390625 325.503906 957.855469 333.515625 951.457031 C 341.53125 945.0625 354.691406 948.226562 362.914062 958.527344 Z M 392.695312 995.824219 " clip-rule="nonzero"/></clipPath><clipPath id="40319234d5"><path d="M 518 1083.503906 L 612 1083.503906 L 612 1133.445312 L 518 1133.445312 Z M 518 1083.503906 " clip-rule="nonzero"/></clipPath><clipPath id="6378fa7779"><path d="M 523.273438 1078.757812 L 615.917969 1102.214844 L 606.804688 1138.203125 L 514.160156 1114.746094 Z M 523.273438 1078.757812 " clip-rule="nonzero"/></clipPath><clipPath id="9131d73d73"><path d="M 592.679688 1096.328125 C 605.453125 1099.5625 613.777344 1110.246094 611.257812 1120.179688 C 608.742188 1130.117188 596.34375 1135.550781 583.5625 1132.316406 L 537.292969 1120.601562 C 524.519531 1117.367188 516.203125 1106.691406 518.714844 1096.75 C 521.230469 1086.8125 533.632812 1081.378906 546.410156 1084.613281 Z M 592.679688 1096.328125 " clip-rule="nonzero"/></clipPath><clipPath id="cdcb6509bf"><path d="M 523.273438 1078.757812 L 615.917969 1102.214844 L 606.804688 1138.203125 L 514.160156 1114.746094 Z M 523.273438 1078.757812 " clip-rule="nonzero"/></clipPath><clipPath id="9bfc1836cd"><path d="M 592.679688 1096.328125 C 605.453125 1099.5625 613.777344 1110.246094 611.257812 1120.179688 C 608.742188 1130.117188 596.34375 1135.550781 583.5625 1132.316406 L 537.292969 1120.601562 C 524.519531 1117.367188 516.203125 1106.691406 518.714844 1096.75 C 521.230469 1086.8125 533.632812 1081.378906 546.410156 1084.613281 Z M 592.679688 1096.328125 " clip-rule="nonzero"/></clipPath><clipPath id="42f9c6ec80"><path d="M 504.398438 601.886719 L 578.878906 601.886719 L 578.878906 676.367188 L 504.398438 676.367188 Z M 504.398438 601.886719 " clip-rule="nonzero"/></clipPath><clipPath id="00462acc02"><path d="M 541.636719 601.886719 C 521.070312 601.886719 504.398438 618.558594 504.398438 639.125 C 504.398438 659.6875 521.070312 676.367188 541.636719 676.367188 C 562.203125 676.367188 578.878906 659.6875 578.878906 639.125 C 578.878906 618.558594 562.203125 601.886719 541.636719 601.886719 Z M 541.636719 601.886719 " clip-rule="nonzero"/></clipPath><clipPath id="47022cafbd"><path d="M 812.796875 601.886719 L 887.273438 601.886719 L 887.273438 676.367188 L 812.796875 676.367188 Z M 812.796875 601.886719 " clip-rule="nonzero"/></clipPath><clipPath id="1207cee37b"><path d="M 850.035156 601.886719 C 829.46875 601.886719 812.796875 618.558594 812.796875 639.125 C 812.796875 659.6875 829.46875 676.367188 850.035156 676.367188 C 870.601562 676.367188 887.273438 659.6875 887.273438 639.125 C 887.273438 618.558594 870.601562 601.886719 850.035156 601.886719 Z M 850.035156 601.886719 " clip-rule="nonzero"/></clipPath></defs><g clip-path="url(#b2a08762d1)"><g clip-path="url(#18467ba10c)"><g clip-path="url(#575b4eefe9)"><path fill="#ffffff" d="M 46 75.691406 L 1304.914062 75.691406 L 1304.914062 1334.609375 L 46 1334.609375 Z M 46 75.691406 " fill-opacity="1" fill-rule="nonzero"/></g></g></g><g clip-path="url(#7ad14c5312)"><g clip-path="url(#0c55593bb6)"><path stroke-linecap="butt" transform="matrix(0.9135, 0, 0, 0.9135, 45.996197, 75.689213)" fill="none" stroke-linejoin="miter" d="M 689.06503 0.00240128 C 308.501734 0.00240128 -0.000113452 308.504249 -0.000113452 689.063268 C -0.000113452 1069.622288 308.501734 1378.124135 689.06503 1378.124135 C 1069.624049 1378.124135 1378.125897 1069.622288 1378.125897 689.063268 C 1378.125897 308.504249 1069.624049 0.00240128 689.06503 0.00240128 Z M 689.06503 0.00240128 " stroke="#302760" stroke-width="100" stroke-opacity="1" stroke-miterlimit="4"/></g></g><g clip-path="url(#8ca80e052d)"><g clip-path="url(#e807b61e37)"><path stroke-linecap="butt" transform="matrix(0.9135, 0, 0, 0.9135, 43.387998, 70.336556)" fill="none" stroke-linejoin="miter" d="M 693.412574 -0.000676565 C 310.450366 -0.000676565 -0.00139996 310.451089 -0.00139996 693.413297 C -0.00139996 1076.379781 310.450366 1386.827271 693.412574 1386.827271 C 1076.379058 1386.827271 1386.826547 1076.379781 1386.826547 693.413297 C 1386.826547 310.451089 1076.379058 -0.000676565 693.412574 -0.000676565 Z M 693.412574 -0.000676565 " stroke="#302760" stroke-width="64" stroke-opacity="1" stroke-miterlimit="4"/></g></g><g clip-path="url(#e348be7a57)"><g clip-path="url(#4474554307)"><g clip-path="url(#3722e92fdd)"><g clip-path="url(#ba02958f3a)"><g clip-path="url(#4bbf69dd78)"><path fill="#155dfc" d="M 151.8125 352.109375 L 1021.136719 185.390625 L 1187.855469 1054.714844 L 318.53125 1221.433594 Z M 151.8125 352.109375 " fill-opacity="1" fill-rule="nonzero"/></g></g></g></g></g><g clip-path="url(#7a3b481b50)"><g clip-path="url(#fb7b6e688f)"><g clip-path="url(#fce5ff5af6)"><g clip-path="url(#8b5821907a)"><path stroke-linecap="butt" transform="matrix(0.897151, -0.172056, 0.172056, 0.897151, 151.810391, 352.110271)" fill="none" stroke-linejoin="miter" d="M 484.492082 -0.000615018 C 216.913053 -0.0000435552 0.00116201 216.914271 -0.00166073 484.488296 C 0.00230494 752.07233 216.91242 968.983416 484.494844 968.987849 C 752.070479 968.982273 968.985764 752.072963 968.985998 484.489734 C 968.984621 216.914904 752.071112 -0.00118648 484.492082 -0.000615018 Z M 484.492082 -0.000615018 " stroke="#302760" stroke-width="100" stroke-opacity="1" stroke-miterlimit="4"/></g></g></g></g><g clip-path="url(#cb7ef56b2f)"><g clip-path="url(#69828823c7)"><g clip-path="url(#45cbd10669)"><path fill="#ffffff" d="M 387.0625 551.511719 L 621.730469 551.511719 L 621.730469 786.179688 L 387.0625 786.179688 Z M 387.0625 551.511719 " fill-opacity="1" fill-rule="nonzero"/></g></g></g><g clip-path="url(#2cb1d10a76)"><g clip-path="url(#ed02b29f4c)"><path stroke-linecap="butt" transform="matrix(0.9135, 0, 0, 0.9135, 387.06337, 551.510332)" fill="none" stroke-linejoin="miter" d="M 128.437076 0.00151752 C 57.504528 0.00151752 -0.000951955 57.506997 -0.000951955 128.439545 C -0.000951955 199.372093 57.504528 256.877573 128.437076 256.877573 C 199.373899 256.877573 256.875103 199.372093 256.875103 128.439545 C 256.875103 57.506997 199.373899 0.00151752 128.437076 0.00151752 Z M 128.437076 0.00151752 " stroke="#302760" stroke-width="100" stroke-opacity="1" stroke-miterlimit="4"/></g></g><g clip-path="url(#8ff9f871cb)"><g clip-path="url(#00800e6d2d)"><g clip-path="url(#dd34c81bf3)"><path fill="#ffffff" d="M 700.550781 551.511719 L 935.21875 551.511719 L 935.21875 786.179688 L 700.550781 786.179688 Z M 700.550781 551.511719 " fill-opacity="1" fill-rule="nonzero"/></g></g></g><g clip-path="url(#d6b7089cde)"><g clip-path="url(#a233bb7b55)"><path stroke-linecap="butt" transform="matrix(0.9135, 0, 0, 0.9135, 700.549653, 551.510332)" fill="none" stroke-linejoin="miter" d="M 128.434987 0.00151752 C 57.506715 0.00151752 0.00123507 57.506997 0.00123507 128.439545 C 0.00123507 199.372093 57.506715 256.877573 128.434987 256.877573 C 199.367534 256.877573 256.873014 199.372093 256.873014 128.439545 C 256.873014 57.506997 199.367534 0.00151752 128.434987 0.00151752 Z M 128.434987 0.00151752 " stroke="#302760" stroke-width="100" stroke-opacity="1" stroke-miterlimit="4"/></g></g><g clip-path="url(#dc5ec97062)"><g clip-path="url(#ffedc31168)"><g clip-path="url(#3016b6bb47)"><g clip-path="url(#13ef384559)"><g clip-path="url(#83a9e43700)"><path fill="#6d72e0" d="M 481.785156 1248.597656 L 277.597656 1135.09375 L 365.648438 976.691406 L 569.839844 1090.195312 Z M 481.785156 1248.597656 " fill-opacity="1" fill-rule="nonzero"/></g></g></g></g></g><g clip-path="url(#5001438015)"><g clip-path="url(#b102c938c6)"><g clip-path="url(#65a165af03)"><g clip-path="url(#6e30d2d545)"><path stroke-linecap="butt" transform="matrix(-0.798438, -0.443823, 0.443823, -0.798438, 481.781152, 1248.594256)" fill="none" stroke-linejoin="miter" d="M 127.819112 0.00234516 L 255.644171 198.371478 L 0.000900913 198.375754 Z M 127.819112 0.00234516 " stroke="#302760" stroke-width="100" stroke-opacity="1" stroke-miterlimit="4"/></g></g></g></g><g clip-path="url(#f36d7af448)"><g clip-path="url(#d797fac933)"><g clip-path="url(#d98faba287)"><g clip-path="url(#675ed40bc6)"><g clip-path="url(#80deeec0f6)"><path fill="#ffffff" d="M 1159.0625 1029.875 L 1347.789062 1171.414062 L 1280.1875 1261.550781 L 1091.464844 1120.011719 Z M 1159.0625 1029.875 " fill-opacity="1" fill-rule="nonzero"/></g></g></g></g></g><path stroke-linecap="round" transform="matrix(0.886784, 0.219306, -0.219306, 0.886784, 745.357241, 1026.53262)" fill="none" stroke-linejoin="miter" d="M 33.853175 89.588337 C 194.761607 2.397582 366.769901 2.803122 549.886357 90.802906 " stroke="#302760" stroke-width="49" stroke-opacity="1" stroke-miterlimit="4"/><g clip-path="url(#4063c13587)"><g clip-path="url(#5ccd32f2ce)"><g clip-path="url(#e659a2264d)"><g clip-path="url(#815bf4b1ac)"><g clip-path="url(#c302eac223)"><path fill="#ffffff" d="M 1266.257812 1168.371094 L 1414.96875 1249.621094 L 1378.792969 1315.828125 L 1230.085938 1234.582031 Z M 1266.257812 1168.371094 " fill-opacity="1" fill-rule="nonzero"/></g></g></g></g></g><path stroke-linecap="round" transform="matrix(0.860179, 0.307528, -0.307528, 0.860179, 1199.108258, 1194.325317)" fill="none" stroke-linejoin="miter" d="M 31.809174 30.945911 C 110.679626 55.826051 189.543858 55.818079 268.417974 30.916236 " stroke="#302760" stroke-width="49" stroke-opacity="1" stroke-miterlimit="4"/><path stroke-linecap="butt" transform="matrix(0.600071, 0.688764, -0.688764, 0.600071, 1199.69525, 981.745551)" fill="none" stroke-linejoin="miter" d="M 6.338816 23.971492 C 137.901781 59.210415 287.164252 59.207131 454.139128 23.972874 " stroke="#302760" stroke-width="49" stroke-opacity="1" stroke-miterlimit="4"/><g clip-path="url(#d8bb6966d0)"><g clip-path="url(#ebc1247d38)"><g clip-path="url(#ad5a96de39)"><g clip-path="url(#076dbbd03d)"><g clip-path="url(#20237a0b94)"><path fill="#155dfc" d="M 515.859375 1185.550781 L 311.429688 1071.914062 L 410.71875 893.300781 L 615.148438 1006.9375 Z M 515.859375 1185.550781 " fill-opacity="1" fill-rule="nonzero"/></g></g></g></g></g><g clip-path="url(#20f69c6676)"><g clip-path="url(#0f4cc33080)"><g clip-path="url(#e033cde3a9)"><g clip-path="url(#86cb330327)"><g clip-path="url(#b6b382f840)"><path fill="#302760" d="M 1067.785156 1111.179688 L 1170.519531 1167.3125 L 1150.675781 1203.640625 L 1047.9375 1147.511719 Z M 1067.785156 1111.179688 " fill-opacity="1" fill-rule="nonzero"/></g></g></g></g></g><g clip-path="url(#8aa2e60d11)"><g clip-path="url(#46e3700f20)"><g clip-path="url(#444caaa17e)"><g clip-path="url(#2fd1dd685c)"><g clip-path="url(#54b288b36d)"><path fill="#ffffff" d="M 1062.09375 1024.542969 L 1213.617188 1100.429688 L 1179.832031 1167.886719 L 1028.308594 1092.003906 Z M 1062.09375 1024.542969 " fill-opacity="1" fill-rule="nonzero"/></g></g></g></g></g><g clip-path="url(#1e2bc0aeef)"><g clip-path="url(#6598358637)"><g clip-path="url(#36bb8ac508)"><g clip-path="url(#5b3f7df650)"><g clip-path="url(#bc240a6a9b)"><path fill="#ffffff" d="M 1141.847656 975.949219 L 1216.816406 1096.742188 L 1172.128906 1124.476562 L 1097.160156 1003.6875 Z M 1141.847656 975.949219 " fill-opacity="1" fill-rule="nonzero"/></g></g></g></g></g><g clip-path="url(#f34a8beaa2)"><g clip-path="url(#a76bfddc93)"><g clip-path="url(#7ef186369d)"><g clip-path="url(#a9a2d0611a)"><g clip-path="url(#7684758ceb)"><path fill="#ffffff" d="M 1092.84375 1044.765625 L 1163.839844 921.601562 L 1209.402344 947.863281 L 1138.40625 1071.03125 Z M 1092.84375 1044.765625 " fill-opacity="1" fill-rule="nonzero"/></g></g></g></g></g><g clip-path="url(#f92a795bea)"><g clip-path="url(#c804743160)"><g clip-path="url(#913ec4635b)"><g clip-path="url(#5f6ca01ff2)"><g clip-path="url(#6ee82c1e56)"><path fill="#302760" d="M 1392.304688 1319.824219 L 1406.289062 1261.558594 L 1499.152344 1283.847656 L 1485.167969 1342.113281 Z M 1392.304688 1319.824219 " fill-opacity="1" fill-rule="nonzero"/></g></g></g></g></g><path stroke-linecap="butt" transform="matrix(0.351985, 0.842964, -0.842964, 0.351985, 342.153081, 926.001572)" fill="none" stroke-linejoin="miter" d="M 3.056341 28.033463 C 78.013199 3.988952 138.922825 3.986412 185.789816 28.03703 " stroke="#302760" stroke-width="20" stroke-opacity="1" stroke-miterlimit="4"/><path stroke-linecap="butt" transform="matrix(0.888112, -0.213866, 0.213866, 0.888112, 415.770142, 1127.693787)" fill="none" stroke-linejoin="miter" d="M 3.338284 31.193989 C 83.160638 2.935537 143.83626 2.935424 185.351678 31.194806 " stroke="#302760" stroke-width="20" stroke-opacity="1" stroke-miterlimit="4"/><g clip-path="url(#7f5c3220f3)"><g clip-path="url(#5142a3b6a7)"><g clip-path="url(#1b2ace701e)"><g clip-path="url(#77a683f797)"><g clip-path="url(#f713df69b2)"><path fill="#302760" d="M 348.023438 939.875 L 407.5625 1014.445312 L 378.554688 1037.613281 L 319.011719 963.042969 Z M 348.023438 939.875 " fill-opacity="1" fill-rule="nonzero"/></g></g></g></g></g><g clip-path="url(#40319234d5)"><g clip-path="url(#6378fa7779)"><g clip-path="url(#9131d73d73)"><g clip-path="url(#cdcb6509bf)"><g clip-path="url(#9bfc1836cd)"><path fill="#302760" d="M 523.273438 1078.757812 L 615.78125 1102.175781 L 606.664062 1138.167969 L 514.160156 1114.746094 Z M 523.273438 1078.757812 " fill-opacity="1" fill-rule="nonzero"/></g></g></g></g></g><g clip-path="url(#42f9c6ec80)"><g clip-path="url(#00462acc02)"><path stroke-linecap="butt" transform="matrix(0.9135, 0, 0, 0.9135, 504.397262, 601.884768)" fill="none" stroke-linejoin="miter" d="M 40.765694 0.0021353 C 18.251836 0.0021353 0.00128691 18.252685 0.00128691 40.766542 C 0.00128691 63.276123 18.251836 81.535225 40.765694 81.535225 C 63.279551 81.535225 81.534376 63.276123 81.534376 40.766542 C 81.534376 18.252685 63.279551 0.0021353 40.765694 0.0021353 Z M 40.765694 0.0021353 " stroke="#302760" stroke-width="82" stroke-opacity="1" stroke-miterlimit="4"/></g></g><g clip-path="url(#47022cafbd)"><g clip-path="url(#1207cee37b)"><path stroke-linecap="butt" transform="matrix(0.9135, 0, 0, 0.9135, 812.794427, 601.884768)" fill="none" stroke-linejoin="miter" d="M 40.767086 0.0021353 C 18.253229 0.0021353 0.00267943 18.252685 0.00267943 40.766542 C 0.00267943 63.276123 18.253229 81.535225 40.767086 81.535225 C 63.280943 81.535225 81.531493 63.276123 81.531493 40.766542 C 81.531493 18.252685 63.280943 0.0021353 40.767086 0.0021353 Z M 40.767086 0.0021353 " stroke="#302760" stroke-width="82" stroke-opacity="1" stroke-miterlimit="4"/></g></g></svg>