<svg xmlns="http://www.w3.org/2000/svg" xmlns:xlink="http://www.w3.org/1999/xlink" width="2000" zoomAndPan="magnify" viewBox="0 0 1500 1499.999933" height="2000" preserveAspectRatio="xMidYMid meet" version="1.0"><defs><clipPath id="b67b640f37"><path d="M 46 75.691406 L 1304.914062 75.691406 L 1304.914062 1334.609375 L 46 1334.609375 Z M 46 75.691406 " clip-rule="nonzero"/></clipPath><clipPath id="700011b13b"><path d="M 675.457031 75.691406 C 327.8125 75.691406 45.996094 357.507812 45.996094 705.148438 C 45.996094 1052.789062 327.8125 1334.609375 675.457031 1334.609375 C 1023.09375 1334.609375 1304.914062 1052.789062 1304.914062 705.148438 C 1304.914062 357.507812 1023.09375 75.691406 675.457031 75.691406 Z M 675.457031 75.691406 " clip-rule="nonzero"/></clipPath><clipPath id="147d8f4189"><path d="M 675.457031 75.691406 C 327.8125 75.691406 46 357.507812 46 705.148438 C 46 1052.789062 327.8125 1334.609375 675.457031 1334.609375 C 1023.09375 1334.609375 1304.914062 1052.789062 1304.914062 705.148438 C 1304.914062 357.507812 1023.09375 75.691406 675.457031 75.691406 Z M 675.457031 75.691406 " clip-rule="nonzero"/></clipPath><clipPath id="cd3d1b2cc4"><path d="M 45.996094 75.691406 L 1304.800781 75.691406 L 1304.800781 1334.488281 L 45.996094 1334.488281 Z M 45.996094 75.691406 " clip-rule="nonzero"/></clipPath><clipPath id="bc05050e6d"><path d="M 675.457031 75.691406 C 327.8125 75.691406 45.996094 357.507812 45.996094 705.148438 C 45.996094 1052.789062 327.8125 1334.605469 675.457031 1334.605469 C 1023.09375 1334.605469 1304.914062 1052.789062 1304.914062 705.148438 C 1304.914062 357.507812 1023.09375 75.691406 675.457031 75.691406 Z M 675.457031 75.691406 " clip-rule="nonzero"/></clipPath><clipPath id="86c2318758"><path d="M 43.386719 70.335938 L 1310.253906 70.335938 L 1310.253906 1337.203125 L 43.386719 1337.203125 Z M 43.386719 70.335938 " clip-rule="nonzero"/></clipPath><clipPath id="fe21653791"><path d="M 676.820312 70.335938 C 326.984375 70.335938 43.386719 353.933594 43.386719 703.769531 C 43.386719 1053.605469 326.984375 1337.203125 676.820312 1337.203125 C 1026.660156 1337.203125 1310.253906 1053.605469 1310.253906 703.769531 C 1310.253906 353.933594 1026.660156 70.335938 676.820312 70.335938 Z M 676.820312 70.335938 " clip-rule="nonzero"/></clipPath><clipPath id="e70044b4d9"><path d="M 227 260.136719 L 1112.738281 260.136719 L 1112.738281 1146.839844 L 227 1146.839844 Z M 227 260.136719 " clip-rule="nonzero"/></clipPath><clipPath id="cb3be4b87a"><path d="M 151.8125 352.109375 L 1021.136719 185.390625 L 1187.855469 1054.714844 L 318.53125 1221.433594 Z M 151.8125 352.109375 " clip-rule="nonzero"/></clipPath><clipPath id="a124ce5f2d"><path d="M 586.472656 268.75 C 346.414062 314.789062 189.132812 546.714844 235.167969 786.773438 C 281.210938 1026.832031 513.132812 1184.113281 753.195312 1138.078125 C 993.25 1092.035156 1150.535156 860.113281 1104.496094 620.050781 C 1058.457031 379.996094 826.53125 222.710938 586.472656 268.75 Z M 586.472656 268.75 " clip-rule="nonzero"/></clipPath><clipPath id="7ab6c25392"><path d="M 151.8125 352.109375 L 1021.136719 185.390625 L 1187.855469 1054.714844 L 318.53125 1221.433594 Z M 151.8125 352.109375 " clip-rule="nonzero"/></clipPath><clipPath id="69bbca87cc"><path d="M 586.472656 268.75 C 346.414062 314.789062 189.132812 546.714844 235.167969 786.773438 C 281.210938 1026.832031 513.132812 1184.113281 753.195312 1138.078125 C 993.25 1092.035156 1150.535156 860.113281 1104.496094 620.050781 C 1058.457031 379.996094 826.53125 222.710938 586.472656 268.75 Z M 586.472656 268.75 " clip-rule="nonzero"/></clipPath><clipPath id="1097dbd211"><path d="M 227 260.136719 L 1112.738281 260.136719 L 1112.738281 1146.839844 L 227 1146.839844 Z M 227 260.136719 " clip-rule="nonzero"/></clipPath><clipPath id="b500b07508"><path d="M 151.8125 352.109375 L 1021.148438 185.386719 L 1187.871094 1054.726562 L 318.53125 1221.449219 Z M 151.8125 352.109375 " clip-rule="nonzero"/></clipPath><clipPath id="7d594d7603"><path d="M 151.8125 352.109375 L 1021.136719 185.390625 L 1187.855469 1054.714844 L 318.53125 1221.433594 Z M 151.8125 352.109375 " clip-rule="nonzero"/></clipPath><clipPath id="e80c7e2563"><path d="M 586.472656 268.75 C 346.414062 314.789062 189.132812 546.714844 235.167969 786.769531 C 281.210938 1026.832031 513.132812 1184.113281 753.195312 1138.074219 C 993.25 1092.035156 1150.535156 860.113281 1104.496094 620.050781 C 1058.457031 379.996094 826.53125 222.710938 586.472656 268.75 Z M 586.472656 268.75 " clip-rule="nonzero"/></clipPath><clipPath id="6789587d72"><path d="M 387.0625 551.511719 L 621.730469 551.511719 L 621.730469 786.179688 L 387.0625 786.179688 Z M 387.0625 551.511719 " clip-rule="nonzero"/></clipPath><clipPath id="8ce85d780a"><path d="M 504.398438 551.511719 C 439.597656 551.511719 387.0625 604.042969 387.0625 668.84375 C 387.0625 733.644531 439.597656 786.179688 504.398438 786.179688 C 569.199219 786.179688 621.730469 733.644531 621.730469 668.84375 C 621.730469 604.042969 569.199219 551.511719 504.398438 551.511719 Z M 504.398438 551.511719 " clip-rule="nonzero"/></clipPath><clipPath id="84032606ee"><path d="M 504.398438 551.511719 C 439.597656 551.511719 387.0625 604.042969 387.0625 668.84375 C 387.0625 733.644531 439.597656 786.179688 504.398438 786.179688 C 569.199219 786.179688 621.730469 733.644531 621.730469 668.84375 C 621.730469 604.042969 569.199219 551.511719 504.398438 551.511719 Z M 504.398438 551.511719 " clip-rule="nonzero"/></clipPath><clipPath id="e4518d85f6"><path d="M 387.0625 551.511719 L 621.71875 551.511719 L 621.71875 786.167969 L 387.0625 786.167969 Z M 387.0625 551.511719 " clip-rule="nonzero"/></clipPath><clipPath id="e52d6ef9f3"><path d="M 504.390625 551.511719 C 439.59375 551.511719 387.0625 604.042969 387.0625 668.839844 C 387.0625 733.636719 439.59375 786.167969 504.390625 786.167969 C 569.191406 786.167969 621.71875 733.636719 621.71875 668.839844 C 621.71875 604.042969 569.191406 551.511719 504.390625 551.511719 Z M 504.390625 551.511719 " clip-rule="nonzero"/></clipPath><clipPath id="5d2424b51c"><path d="M 700.550781 551.511719 L 935.21875 551.511719 L 935.21875 786.179688 L 700.550781 786.179688 Z M 700.550781 551.511719 " clip-rule="nonzero"/></clipPath><clipPath id="da72c80b36"><path d="M 817.882812 551.511719 C 753.082031 551.511719 700.550781 604.042969 700.550781 668.84375 C 700.550781 733.644531 753.082031 786.179688 817.882812 786.179688 C 882.6875 786.179688 935.21875 733.644531 935.21875 668.84375 C 935.21875 604.042969 882.6875 551.511719 817.882812 551.511719 Z M 817.882812 551.511719 " clip-rule="nonzero"/></clipPath><clipPath id="b7cba3a974"><path d="M 817.882812 551.511719 C 753.082031 551.511719 700.550781 604.042969 700.550781 668.84375 C 700.550781 733.644531 753.082031 786.179688 817.882812 786.179688 C 882.6875 786.179688 935.21875 733.644531 935.21875 668.84375 C 935.21875 604.042969 882.6875 551.511719 817.882812 551.511719 Z M 817.882812 551.511719 " clip-rule="nonzero"/></clipPath><clipPath id="5f192f43a0"><path d="M 700.550781 551.511719 L 935.203125 551.511719 L 935.203125 786.167969 L 700.550781 786.167969 Z M 700.550781 551.511719 " clip-rule="nonzero"/></clipPath><clipPath id="bf96f51fd3"><path d="M 817.875 551.511719 C 753.082031 551.511719 700.550781 604.042969 700.550781 668.839844 C 700.550781 733.636719 753.082031 786.167969 817.875 786.167969 C 882.671875 786.167969 935.203125 733.636719 935.203125 668.839844 C 935.203125 604.042969 882.671875 551.511719 817.875 551.511719 Z M 817.875 551.511719 " clip-rule="nonzero"/></clipPath><clipPath id="6bd6ad2bc2"><path d="M 365.519531 976.46875 L 569.851562 976.46875 L 569.851562 1191.90625 L 365.519531 1191.90625 Z M 365.519531 976.46875 " clip-rule="nonzero"/></clipPath><clipPath id="6ad7ce2e0d"><path d="M 481.785156 1248.597656 L 277.597656 1135.09375 L 365.648438 976.691406 L 569.839844 1090.195312 Z M 481.785156 1248.597656 " clip-rule="nonzero"/></clipPath><clipPath id="f0ad9613f6"><path d="M 379.71875 1191.863281 L 365.707031 976.726562 L 569.839844 1090.195312 Z M 379.71875 1191.863281 " clip-rule="nonzero"/></clipPath><clipPath id="a249466d5a"><path d="M 481.785156 1248.597656 L 277.597656 1135.09375 L 365.648438 976.691406 L 569.839844 1090.195312 Z M 481.785156 1248.597656 " clip-rule="nonzero"/></clipPath><clipPath id="f01e341c78"><path d="M 379.71875 1191.863281 L 365.707031 976.726562 L 569.839844 1090.195312 Z M 379.71875 1191.863281 " clip-rule="nonzero"/></clipPath><clipPath id="4884c68877"><path d="M 365 976.320312 L 570 976.320312 L 570 1191.90625 L 365 1191.90625 Z M 365 976.320312 " clip-rule="nonzero"/></clipPath><clipPath id="e0d5a75b70"><path d="M 481.785156 1248.597656 L 277.382812 1134.980469 L 365.261719 976.886719 L 569.660156 1090.507812 Z M 481.785156 1248.597656 " clip-rule="nonzero"/></clipPath><clipPath id="242313ad46"><path d="M 481.78125 1248.59375 L 277.664062 1135.132812 L 366.308594 975.667969 L 570.421875 1089.128906 Z M 481.78125 1248.59375 " clip-rule="nonzero"/></clipPath><clipPath id="42c522efce"><path d="M 379.726562 1191.863281 L 365.707031 976.746094 L 569.824219 1090.203125 Z M 379.726562 1191.863281 " clip-rule="nonzero"/></clipPath><clipPath id="5e9c35a3af"><path d="M 1115.171875 1055 L 1324 1055 L 1324 1236.972656 L 1115.171875 1236.972656 Z M 1115.171875 1055 " clip-rule="nonzero"/></clipPath><clipPath id="24f5a9166d"><path d="M 1159.0625 1029.875 L 1348.140625 1171.683594 L 1280.539062 1261.820312 L 1091.464844 1120.011719 Z M 1159.0625 1029.875 " clip-rule="nonzero"/></clipPath><clipPath id="1d3f3762a7"><path d="M 1292.746094 1130.132812 C 1323.152344 1152.9375 1332.671875 1191.601562 1314.003906 1216.496094 C 1295.335938 1241.382812 1255.554688 1243.078125 1225.140625 1220.269531 L 1146.527344 1161.308594 C 1116.117188 1138.5 1106.59375 1099.835938 1125.265625 1074.945312 C 1143.929688 1050.054688 1183.714844 1048.363281 1214.125 1071.171875 Z M 1292.746094 1130.132812 " clip-rule="nonzero"/></clipPath><clipPath id="0b7b7a43c8"><path d="M 1159.0625 1029.875 L 1348.140625 1171.683594 L 1280.539062 1261.820312 L 1091.464844 1120.011719 Z M 1159.0625 1029.875 " clip-rule="nonzero"/></clipPath><clipPath id="991aae4920"><path d="M 1292.746094 1130.132812 C 1323.152344 1152.9375 1332.671875 1191.601562 1314.003906 1216.496094 C 1295.335938 1241.382812 1255.554688 1243.078125 1225.140625 1220.269531 L 1146.527344 1161.308594 C 1116.117188 1138.5 1106.59375 1099.835938 1125.265625 1074.945312 C 1143.929688 1050.054688 1183.714844 1048.363281 1214.125 1071.171875 Z M 1292.746094 1130.132812 " clip-rule="nonzero"/></clipPath><clipPath id="17a6221968"><path d="M 1245.5 1187.035156 L 1400 1187.035156 L 1400 1296.65625 L 1245.5 1296.65625 Z M 1245.5 1187.035156 " clip-rule="nonzero"/></clipPath><clipPath id="5d8883f075"><path d="M 1266.257812 1168.371094 L 1415.230469 1249.761719 L 1379.054688 1315.972656 L 1230.085938 1234.582031 Z M 1266.257812 1168.371094 " clip-rule="nonzero"/></clipPath><clipPath id="5de3dba44e"><path d="M 1354.628906 1216.652344 C 1387.988281 1234.878906 1406.933594 1264.472656 1396.941406 1282.757812 C 1386.953125 1301.042969 1351.8125 1301.089844 1318.457031 1282.863281 L 1290.480469 1267.582031 C 1257.121094 1249.351562 1238.183594 1219.757812 1248.167969 1201.476562 C 1258.160156 1183.191406 1293.296875 1183.144531 1326.652344 1201.371094 Z M 1354.628906 1216.652344 " clip-rule="nonzero"/></clipPath><clipPath id="cca8659d5d"><path d="M 1266.257812 1168.371094 L 1415.230469 1249.761719 L 1379.054688 1315.972656 L 1230.085938 1234.582031 Z M 1266.257812 1168.371094 " clip-rule="nonzero"/></clipPath><clipPath id="b4168f98af"><path d="M 1354.628906 1216.652344 C 1387.988281 1234.878906 1406.933594 1264.472656 1396.941406 1282.757812 C 1386.953125 1301.042969 1351.8125 1301.089844 1318.457031 1282.863281 L 1290.480469 1267.582031 C 1257.121094 1249.351562 1238.183594 1219.757812 1248.167969 1201.476562 C 1258.160156 1183.191406 1293.296875 1183.144531 1326.652344 1201.371094 Z M 1354.628906 1216.652344 " clip-rule="nonzero"/></clipPath><clipPath id="099fe9b5af"><path d="M 411 893.449219 L 615.160156 893.449219 L 615.160156 1129 L 411 1129 Z M 411 893.449219 " clip-rule="nonzero"/></clipPath><clipPath id="e1776da0e4"><path d="M 515.859375 1185.550781 L 311.429688 1071.914062 L 410.71875 893.300781 L 615.148438 1006.9375 Z M 515.859375 1185.550781 " clip-rule="nonzero"/></clipPath><clipPath id="a24a01438d"><path d="M 413.796875 1128.8125 L 411.015625 893.46875 L 615.148438 1006.9375 Z M 413.796875 1128.8125 " clip-rule="nonzero"/></clipPath><clipPath id="42840d0b85"><path d="M 515.859375 1185.550781 L 311.429688 1071.914062 L 410.71875 893.300781 L 615.148438 1006.9375 Z M 515.859375 1185.550781 " clip-rule="nonzero"/></clipPath><clipPath id="464b61c413"><path d="M 413.796875 1128.8125 L 411.015625 893.46875 L 615.148438 1006.9375 Z M 413.796875 1128.8125 " clip-rule="nonzero"/></clipPath><clipPath id="4c8b7b2dd5"><path d="M 1055.492188 1120.046875 L 1162.675781 1120.046875 L 1162.675781 1195 L 1055.492188 1195 Z M 1055.492188 1120.046875 " clip-rule="nonzero"/></clipPath><clipPath id="efadec751b"><path d="M 1067.785156 1111.179688 L 1170.519531 1167.3125 L 1150.675781 1203.640625 L 1047.9375 1147.511719 Z M 1067.785156 1111.179688 " clip-rule="nonzero"/></clipPath><clipPath id="a855c71f98"><path d="M 1145.390625 1153.582031 C 1159.269531 1161.167969 1166.078125 1175.445312 1160.597656 1185.476562 C 1155.117188 1195.507812 1139.417969 1197.492188 1125.539062 1189.910156 L 1073.066406 1161.242188 C 1059.1875 1153.660156 1052.378906 1139.375 1057.859375 1129.347656 C 1063.34375 1119.316406 1079.039062 1117.328125 1092.917969 1124.914062 Z M 1145.390625 1153.582031 " clip-rule="nonzero"/></clipPath><clipPath id="af1f691920"><path d="M 1067.785156 1111.179688 L 1170.519531 1167.3125 L 1150.675781 1203.640625 L 1047.9375 1147.511719 Z M 1067.785156 1111.179688 " clip-rule="nonzero"/></clipPath><clipPath id="e4179be308"><path d="M 1145.390625 1153.582031 C 1159.269531 1161.167969 1166.078125 1175.445312 1160.597656 1185.476562 C 1155.117188 1195.507812 1139.417969 1197.492188 1125.539062 1189.910156 L 1073.066406 1161.242188 C 1059.1875 1153.660156 1052.378906 1139.375 1057.859375 1129.347656 C 1063.34375 1119.316406 1079.039062 1117.328125 1092.917969 1124.914062 Z M 1145.390625 1153.582031 " clip-rule="nonzero"/></clipPath><clipPath id="12500a743d"><path d="M 1042.09375 1043.3125 L 1199.214844 1043.3125 L 1199.214844 1149.277344 L 1042.09375 1149.277344 Z M 1042.09375 1043.3125 " clip-rule="nonzero"/></clipPath><clipPath id="2376fd5d08"><path d="M 1062.09375 1024.542969 L 1213.878906 1100.558594 L 1180.09375 1168.019531 L 1028.308594 1092.003906 Z M 1062.09375 1024.542969 " clip-rule="nonzero"/></clipPath><clipPath id="7946210a0d"><path d="M 1152.136719 1069.636719 C 1186.125 1086.660156 1206.113281 1115.558594 1196.785156 1134.1875 C 1187.453125 1152.816406 1152.339844 1154.117188 1118.351562 1137.097656 L 1089.851562 1122.824219 C 1055.863281 1105.800781 1035.875 1076.902344 1045.207031 1058.269531 C 1054.535156 1039.644531 1089.648438 1038.339844 1123.636719 1055.363281 Z M 1152.136719 1069.636719 " clip-rule="nonzero"/></clipPath><clipPath id="428918ed85"><path d="M 1062.09375 1024.542969 L 1213.878906 1100.558594 L 1180.09375 1168.019531 L 1028.308594 1092.003906 Z M 1062.09375 1024.542969 " clip-rule="nonzero"/></clipPath><clipPath id="9a31bbb872"><path d="M 1152.136719 1069.636719 C 1186.125 1086.660156 1206.113281 1115.558594 1196.785156 1134.1875 C 1187.453125 1152.816406 1152.339844 1154.117188 1118.351562 1137.097656 L 1089.851562 1122.824219 C 1055.863281 1105.800781 1035.875 1076.902344 1045.207031 1058.269531 C 1054.535156 1039.644531 1089.648438 1038.339844 1123.636719 1055.363281 Z M 1152.136719 1069.636719 " clip-rule="nonzero"/></clipPath><clipPath id="657074fafb"><path d="M 1109.082031 986.066406 L 1205 986.066406 L 1205 1113.957031 L 1109.082031 1113.957031 Z M 1109.082031 986.066406 " clip-rule="nonzero"/></clipPath><clipPath id="f557e362a5"><path d="M 1141.847656 975.949219 L 1216.816406 1096.742188 L 1172.128906 1124.476562 L 1097.160156 1003.6875 Z M 1141.847656 975.949219 " clip-rule="nonzero"/></clipPath><clipPath id="475150d57e"><path d="M 1197.589844 1065.761719 C 1208.183594 1082.835938 1206.769531 1102.882812 1194.433594 1110.542969 C 1182.09375 1118.203125 1163.5 1110.574219 1152.902344 1093.496094 L 1116.347656 1034.601562 C 1105.753906 1017.523438 1107.167969 997.480469 1119.503906 989.820312 C 1131.84375 982.160156 1150.4375 989.789062 1161.035156 1006.867188 Z M 1197.589844 1065.761719 " clip-rule="nonzero"/></clipPath><clipPath id="83dcd4509c"><path d="M 1141.847656 975.949219 L 1216.816406 1096.742188 L 1172.128906 1124.476562 L 1097.160156 1003.6875 Z M 1141.847656 975.949219 " clip-rule="nonzero"/></clipPath><clipPath id="bb5c4900a8"><path d="M 1197.589844 1065.761719 C 1208.183594 1082.835938 1206.769531 1102.882812 1194.433594 1110.542969 C 1182.09375 1118.203125 1163.5 1110.574219 1152.902344 1093.496094 L 1116.347656 1034.601562 C 1105.753906 1017.523438 1107.167969 997.480469 1119.503906 989.820312 C 1131.84375 982.160156 1150.4375 989.789062 1161.035156 1006.867188 Z M 1197.589844 1065.761719 " clip-rule="nonzero"/></clipPath><clipPath id="8cc01f3d7c"><path d="M 1104.210938 932 L 1197.996094 932 L 1197.996094 1061 L 1104.210938 1061 Z M 1104.210938 932 " clip-rule="nonzero"/></clipPath><clipPath id="d4749b8bf0"><path d="M 1092.84375 1044.765625 L 1163.839844 921.601562 L 1209.402344 947.863281 L 1138.40625 1071.03125 Z M 1092.84375 1044.765625 " clip-rule="nonzero"/></clipPath><clipPath id="9d7713d2d9"><path d="M 1145.632812 953.1875 C 1155.667969 935.78125 1174 927.550781 1186.582031 934.800781 C 1199.164062 942.050781 1201.234375 962.042969 1191.195312 979.453125 L 1156.574219 1039.511719 C 1146.542969 1056.917969 1128.210938 1065.15625 1115.625 1057.898438 C 1103.042969 1050.648438 1100.976562 1030.65625 1111.011719 1013.246094 Z M 1145.632812 953.1875 " clip-rule="nonzero"/></clipPath><clipPath id="fb98a5898b"><path d="M 1092.84375 1044.765625 L 1163.839844 921.601562 L 1209.402344 947.863281 L 1138.40625 1071.03125 Z M 1092.84375 1044.765625 " clip-rule="nonzero"/></clipPath><clipPath id="a1a86bd3fe"><path d="M 1145.632812 953.1875 C 1155.667969 935.78125 1174 927.550781 1186.582031 934.800781 C 1199.164062 942.050781 1201.234375 962.042969 1191.195312 979.453125 L 1156.574219 1039.511719 C 1146.542969 1056.917969 1128.210938 1065.15625 1115.625 1057.898438 C 1103.039062 1050.648438 1100.976562 1030.65625 1111.011719 1013.246094 Z M 1145.632812 953.1875 " clip-rule="nonzero"/></clipPath><clipPath id="ab994d5fdd"><path d="M 1396.53125 1265 L 1480 1265 L 1480 1327.105469 L 1396.53125 1327.105469 Z M 1396.53125 1265 " clip-rule="nonzero"/></clipPath><clipPath id="a060b70a2f"><path d="M 1392.304688 1319.824219 L 1406.289062 1261.558594 L 1486.40625 1280.789062 L 1472.421875 1339.050781 Z M 1392.304688 1319.824219 " clip-rule="nonzero"/></clipPath><clipPath id="ec2f917963"><path d="M 1413.066406 1324.808594 C 1426.667969 1328.070312 1440.886719 1327.757812 1454.335938 1323.890625 L 1470.277344 1319.308594 C 1474.757812 1318.019531 1478.199219 1314.421875 1479.289062 1309.890625 C 1480.375 1305.359375 1478.941406 1300.589844 1475.535156 1297.410156 L 1463.40625 1286.089844 C 1453.179688 1276.539062 1440.652344 1269.808594 1427.046875 1266.539062 C 1421.542969 1265.21875 1415.738281 1266.140625 1410.910156 1269.097656 C 1406.085938 1272.058594 1402.632812 1276.8125 1401.308594 1282.316406 L 1397.289062 1299.066406 C 1395.964844 1304.574219 1396.886719 1310.378906 1399.84375 1315.207031 C 1402.800781 1320.03125 1407.558594 1323.484375 1413.066406 1324.808594 Z M 1413.066406 1324.808594 " clip-rule="nonzero"/></clipPath><clipPath id="185dd79b57"><path d="M 1392.304688 1319.824219 L 1406.289062 1261.558594 L 1486.40625 1280.789062 L 1472.421875 1339.050781 Z M 1392.304688 1319.824219 " clip-rule="nonzero"/></clipPath><clipPath id="124ed03ec3"><path d="M 1413.066406 1324.808594 C 1426.667969 1328.070312 1440.886719 1327.757812 1454.335938 1323.890625 L 1470.277344 1319.308594 C 1474.757812 1318.019531 1478.199219 1314.421875 1479.289062 1309.890625 C 1480.375 1305.359375 1478.941406 1300.589844 1475.535156 1297.410156 L 1463.40625 1286.089844 C 1453.179688 1276.539062 1440.652344 1269.808594 1427.046875 1266.539062 C 1421.542969 1265.21875 1415.738281 1266.140625 1410.910156 1269.097656 C 1406.085938 1272.058594 1402.632812 1276.8125 1401.308594 1282.316406 L 1397.289062 1299.066406 C 1395.964844 1304.574219 1396.886719 1310.378906 1399.84375 1315.207031 C 1402.800781 1320.03125 1407.558594 1323.484375 1413.066406 1324.808594 Z M 1413.066406 1324.808594 " clip-rule="nonzero"/></clipPath><clipPath id="d4d97e6d90"><path d="M 327.128906 948 L 398.988281 948 L 398.988281 1029.914062 L 327.128906 1029.914062 Z M 327.128906 948 " clip-rule="nonzero"/></clipPath><clipPath id="a9a65ed159"><path d="M 348.023438 939.875 L 407.652344 1014.558594 L 378.644531 1037.722656 L 319.011719 963.042969 Z M 348.023438 939.875 " clip-rule="nonzero"/></clipPath><clipPath id="6c7d71c2a7"><path d="M 392.695312 995.824219 C 400.921875 1006.125 401.09375 1019.660156 393.085938 1026.054688 C 385.074219 1032.453125 371.90625 1029.289062 363.6875 1018.988281 L 333.902344 981.691406 C 325.679688 971.390625 325.503906 957.855469 333.515625 951.457031 C 341.53125 945.0625 354.691406 948.226562 362.914062 958.527344 Z M 392.695312 995.824219 " clip-rule="nonzero"/></clipPath><clipPath id="b6351200a9"><path d="M 348.023438 939.875 L 407.652344 1014.558594 L 378.644531 1037.722656 L 319.011719 963.042969 Z M 348.023438 939.875 " clip-rule="nonzero"/></clipPath><clipPath id="0a30632fe4"><path d="M 392.695312 995.824219 C 400.921875 1006.125 401.09375 1019.660156 393.085938 1026.054688 C 385.074219 1032.453125 371.90625 1029.289062 363.6875 1018.988281 L 333.902344 981.691406 C 325.679688 971.390625 325.503906 957.855469 333.515625 951.457031 C 341.53125 945.0625 354.691406 948.226562 362.914062 958.527344 Z M 392.695312 995.824219 " clip-rule="nonzero"/></clipPath><clipPath id="7188f0a638"><path d="M 518 1083.503906 L 612 1083.503906 L 612 1133.445312 L 518 1133.445312 Z M 518 1083.503906 " clip-rule="nonzero"/></clipPath><clipPath id="88be33ab59"><path d="M 523.273438 1078.757812 L 615.917969 1102.214844 L 606.804688 1138.203125 L 514.160156 1114.746094 Z M 523.273438 1078.757812 " clip-rule="nonzero"/></clipPath><clipPath id="71e959afe9"><path d="M 592.679688 1096.328125 C 605.453125 1099.5625 613.777344 1110.246094 611.257812 1120.179688 C 608.742188 1130.117188 596.34375 1135.550781 583.5625 1132.316406 L 537.292969 1120.601562 C 524.519531 1117.367188 516.203125 1106.691406 518.714844 1096.75 C 521.230469 1086.8125 533.632812 1081.378906 546.410156 1084.613281 Z M 592.679688 1096.328125 " clip-rule="nonzero"/></clipPath><clipPath id="7d9a5ff583"><path d="M 523.273438 1078.757812 L 615.917969 1102.214844 L 606.804688 1138.203125 L 514.160156 1114.746094 Z M 523.273438 1078.757812 " clip-rule="nonzero"/></clipPath><clipPath id="612f8a41ae"><path d="M 592.679688 1096.328125 C 605.453125 1099.5625 613.777344 1110.246094 611.257812 1120.179688 C 608.742188 1130.117188 596.34375 1135.550781 583.5625 1132.316406 L 537.292969 1120.601562 C 524.519531 1117.367188 516.203125 1106.691406 518.714844 1096.75 C 521.230469 1086.8125 533.632812 1081.378906 546.410156 1084.613281 Z M 592.679688 1096.328125 " clip-rule="nonzero"/></clipPath><clipPath id="55e1738650"><path d="M 504.398438 601.886719 L 578.878906 601.886719 L 578.878906 676.367188 L 504.398438 676.367188 Z M 504.398438 601.886719 " clip-rule="nonzero"/></clipPath><clipPath id="3ef091498c"><path d="M 541.636719 601.886719 C 521.070312 601.886719 504.398438 618.558594 504.398438 639.125 C 504.398438 659.6875 521.070312 676.367188 541.636719 676.367188 C 562.203125 676.367188 578.878906 659.6875 578.878906 639.125 C 578.878906 618.558594 562.203125 601.886719 541.636719 601.886719 Z M 541.636719 601.886719 " clip-rule="nonzero"/></clipPath><clipPath id="582a89970e"><path d="M 812.796875 601.886719 L 887.273438 601.886719 L 887.273438 676.367188 L 812.796875 676.367188 Z M 812.796875 601.886719 " clip-rule="nonzero"/></clipPath><clipPath id="5011513eec"><path d="M 850.035156 601.886719 C 829.46875 601.886719 812.796875 618.558594 812.796875 639.125 C 812.796875 659.6875 829.46875 676.367188 850.035156 676.367188 C 870.601562 676.367188 887.273438 659.6875 887.273438 639.125 C 887.273438 618.558594 870.601562 601.886719 850.035156 601.886719 Z M 850.035156 601.886719 " clip-rule="nonzero"/></clipPath></defs><g clip-path="url(#b67b640f37)"><g clip-path="url(#700011b13b)"><g clip-path="url(#147d8f4189)"><path fill="#ffffff" d="M 46 75.691406 L 1304.914062 75.691406 L 1304.914062 1334.609375 L 46 1334.609375 Z M 46 75.691406 " fill-opacity="1" fill-rule="nonzero"/></g></g></g><g clip-path="url(#cd3d1b2cc4)"><g clip-path="url(#bc05050e6d)"><path stroke-linecap="butt" transform="matrix(0.9135, 0, 0, 0.9135, 45.996197, 75.689213)" fill="none" stroke-linejoin="miter" d="M 689.06503 0.00240128 C 308.501734 0.00240128 -0.000113452 308.504249 -0.000113452 689.063268 C -0.000113452 1069.622288 308.501734 1378.124135 689.06503 1378.124135 C 1069.624049 1378.124135 1378.125897 1069.622288 1378.125897 689.063268 C 1378.125897 308.504249 1069.624049 0.00240128 689.06503 0.00240128 Z M 689.06503 0.00240128 " stroke="#302760" stroke-width="100" stroke-opacity="1" stroke-miterlimit="4"/></g></g><g clip-path="url(#86c2318758)"><g clip-path="url(#fe21653791)"><path stroke-linecap="butt" transform="matrix(0.9135, 0, 0, 0.9135, 43.387998, 70.336556)" fill="none" stroke-linejoin="miter" d="M 693.412574 -0.000676565 C 310.450366 -0.000676565 -0.00139996 310.451089 -0.00139996 693.413297 C -0.00139996 1076.379781 310.450366 1386.827271 693.412574 1386.827271 C 1076.379058 1386.827271 1386.826547 1076.379781 1386.826547 693.413297 C 1386.826547 310.451089 1076.379058 -0.000676565 693.412574 -0.000676565 Z M 693.412574 -0.000676565 " stroke="#302760" stroke-width="64" stroke-opacity="1" stroke-miterlimit="4"/></g></g><g clip-path="url(#e70044b4d9)"><g clip-path="url(#cb3be4b87a)"><g clip-path="url(#a124ce5f2d)"><g clip-path="url(#7ab6c25392)"><g clip-path="url(#69bbca87cc)"><path fill="#155dfc" d="M 151.8125 352.109375 L 1021.136719 185.390625 L 1187.855469 1054.714844 L 318.53125 1221.433594 Z M 151.8125 352.109375 " fill-opacity="1" fill-rule="nonzero"/></g></g></g></g></g><g clip-path="url(#1097dbd211)"><g clip-path="url(#b500b07508)"><g clip-path="url(#7d594d7603)"><g clip-path="url(#e80c7e2563)"><path stroke-linecap="butt" transform="matrix(0.897151, -0.172056, 0.172056, 0.897151, 151.810391, 352.110271)" fill="none" stroke-linejoin="miter" d="M 484.492082 -0.000615018 C 216.913053 -0.0000435552 0.00116201 216.914271 -0.00166073 484.488296 C 0.00230494 752.07233 216.91242 968.983416 484.494844 968.987849 C 752.070479 968.982273 968.985764 752.072963 968.985998 484.489734 C 968.984621 216.914904 752.071112 -0.00118648 484.492082 -0.000615018 Z M 484.492082 -0.000615018 " stroke="#302760" stroke-width="100" stroke-opacity="1" stroke-miterlimit="4"/></g></g></g></g><g clip-path="url(#6789587d72)"><g clip-path="url(#8ce85d780a)"><g clip-path="url(#84032606ee)"><path fill="#ffffff" d="M 387.0625 551.511719 L 621.730469 551.511719 L 621.730469 786.179688 L 387.0625 786.179688 Z M 387.0625 551.511719 " fill-opacity="1" fill-rule="nonzero"/></g></g></g><g clip-path="url(#e4518d85f6)"><g clip-path="url(#e52d6ef9f3)"><path stroke-linecap="butt" transform="matrix(0.9135, 0, 0, 0.9135, 387.06337, 551.510332)" fill="none" stroke-linejoin="miter" d="M 128.437076 0.00151752 C 57.504528 0.00151752 -0.000951955 57.506997 -0.000951955 128.439545 C -0.000951955 199.372093 57.504528 256.877573 128.437076 256.877573 C 199.373899 256.877573 256.875103 199.372093 256.875103 128.439545 C 256.875103 57.506997 199.373899 0.00151752 128.437076 0.00151752 Z M 128.437076 0.00151752 " stroke="#302760" stroke-width="100" stroke-opacity="1" stroke-miterlimit="4"/></g></g><g clip-path="url(#5d2424b51c)"><g clip-path="url(#da72c80b36)"><g clip-path="url(#b7cba3a974)"><path fill="#ffffff" d="M 700.550781 551.511719 L 935.21875 551.511719 L 935.21875 786.179688 L 700.550781 786.179688 Z M 700.550781 551.511719 " fill-opacity="1" fill-rule="nonzero"/></g></g></g><g clip-path="url(#5f192f43a0)"><g clip-path="url(#bf96f51fd3)"><path stroke-linecap="butt" transform="matrix(0.9135, 0, 0, 0.9135, 700.549653, 551.510332)" fill="none" stroke-linejoin="miter" d="M 128.434987 0.00151752 C 57.506715 0.00151752 0.00123507 57.506997 0.00123507 128.439545 C 0.00123507 199.372093 57.506715 256.877573 128.434987 256.877573 C 199.367534 256.877573 256.873014 199.372093 256.873014 128.439545 C 256.873014 57.506997 199.367534 0.00151752 128.434987 0.00151752 Z M 128.434987 0.00151752 " stroke="#302760" stroke-width="100" stroke-opacity="1" stroke-miterlimit="4"/></g></g><g clip-path="url(#6bd6ad2bc2)"><g clip-path="url(#6ad7ce2e0d)"><g clip-path="url(#f0ad9613f6)"><g clip-path="url(#a249466d5a)"><g clip-path="url(#f01e341c78)"><path fill="#6d72e0" d="M 481.785156 1248.597656 L 277.597656 1135.09375 L 365.648438 976.691406 L 569.839844 1090.195312 Z M 481.785156 1248.597656 " fill-opacity="1" fill-rule="nonzero"/></g></g></g></g></g><g clip-path="url(#4884c68877)"><g clip-path="url(#e0d5a75b70)"><g clip-path="url(#242313ad46)"><g clip-path="url(#42c522efce)"><path stroke-linecap="butt" transform="matrix(-0.798438, -0.443823, 0.443823, -0.798438, 481.781152, 1248.594256)" fill="none" stroke-linejoin="miter" d="M 127.819112 0.00234516 L 255.644171 198.371478 L 0.000900913 198.375754 Z M 127.819112 0.00234516 " stroke="#302760" stroke-width="100" stroke-opacity="1" stroke-miterlimit="4"/></g></g></g></g><g clip-path="url(#5e9c35a3af)"><g clip-path="url(#24f5a9166d)"><g clip-path="url(#1d3f3762a7)"><g clip-path="url(#0b7b7a43c8)"><g clip-path="url(#991aae4920)"><path fill="#ffffff" d="M 1159.0625 1029.875 L 1347.789062 1171.414062 L 1280.1875 1261.550781 L 1091.464844 1120.011719 Z M 1159.0625 1029.875 " fill-opacity="1" fill-rule="nonzero"/></g></g></g></g></g><path stroke-linecap="round" transform="matrix(0.886784, 0.219306, -0.219306, 0.886784, 745.357241, 1026.53262)" fill="none" stroke-linejoin="miter" d="M 33.853175 89.588337 C 194.761607 2.397582 366.769901 2.803122 549.886357 90.802906 " stroke="#302760" stroke-width="49" stroke-opacity="1" stroke-miterlimit="4"/><g clip-path="url(#17a6221968)"><g clip-path="url(#5d8883f075)"><g clip-path="url(#5de3dba44e)"><g clip-path="url(#cca8659d5d)"><g clip-path="url(#b4168f98af)"><path fill="#ffffff" d="M 1266.257812 1168.371094 L 1414.96875 1249.621094 L 1378.792969 1315.828125 L 1230.085938 1234.582031 Z M 1266.257812 1168.371094 " fill-opacity="1" fill-rule="nonzero"/></g></g></g></g></g><path stroke-linecap="round" transform="matrix(0.860179, 0.307528, -0.307528, 0.860179, 1199.108258, 1194.325317)" fill="none" stroke-linejoin="miter" d="M 31.809174 30.945911 C 110.679626 55.826051 189.543858 55.818079 268.417974 30.916236 " stroke="#302760" stroke-width="49" stroke-opacity="1" stroke-miterlimit="4"/><path stroke-linecap="butt" transform="matrix(0.600071, 0.688764, -0.688764, 0.600071, 1199.69525, 981.745551)" fill="none" stroke-linejoin="miter" d="M 6.338816 23.971492 C 137.901781 59.210415 287.164252 59.207131 454.139128 23.972874 " stroke="#302760" stroke-width="49" stroke-opacity="1" stroke-miterlimit="4"/><g clip-path="url(#099fe9b5af)"><g clip-path="url(#e1776da0e4)"><g clip-path="url(#a24a01438d)"><g clip-path="url(#42840d0b85)"><g clip-path="url(#464b61c413)"><path fill="#155dfc" d="M 515.859375 1185.550781 L 311.429688 1071.914062 L 410.71875 893.300781 L 615.148438 1006.9375 Z M 515.859375 1185.550781 " fill-opacity="1" fill-rule="nonzero"/></g></g></g></g></g><g clip-path="url(#4c8b7b2dd5)"><g clip-path="url(#efadec751b)"><g clip-path="url(#a855c71f98)"><g clip-path="url(#af1f691920)"><g clip-path="url(#e4179be308)"><path fill="#302760" d="M 1067.785156 1111.179688 L 1170.519531 1167.3125 L 1150.675781 1203.640625 L 1047.9375 1147.511719 Z M 1067.785156 1111.179688 " fill-opacity="1" fill-rule="nonzero"/></g></g></g></g></g><g clip-path="url(#12500a743d)"><g clip-path="url(#2376fd5d08)"><g clip-path="url(#7946210a0d)"><g clip-path="url(#428918ed85)"><g clip-path="url(#9a31bbb872)"><path fill="#ffffff" d="M 1062.09375 1024.542969 L 1213.617188 1100.429688 L 1179.832031 1167.886719 L 1028.308594 1092.003906 Z M 1062.09375 1024.542969 " fill-opacity="1" fill-rule="nonzero"/></g></g></g></g></g><g clip-path="url(#657074fafb)"><g clip-path="url(#f557e362a5)"><g clip-path="url(#475150d57e)"><g clip-path="url(#83dcd4509c)"><g clip-path="url(#bb5c4900a8)"><path fill="#ffffff" d="M 1141.847656 975.949219 L 1216.816406 1096.742188 L 1172.128906 1124.476562 L 1097.160156 1003.6875 Z M 1141.847656 975.949219 " fill-opacity="1" fill-rule="nonzero"/></g></g></g></g></g><g clip-path="url(#8cc01f3d7c)"><g clip-path="url(#d4749b8bf0)"><g clip-path="url(#9d7713d2d9)"><g clip-path="url(#fb98a5898b)"><g clip-path="url(#a1a86bd3fe)"><path fill="#ffffff" d="M 1092.84375 1044.765625 L 1163.839844 921.601562 L 1209.402344 947.863281 L 1138.40625 1071.03125 Z M 1092.84375 1044.765625 " fill-opacity="1" fill-rule="nonzero"/></g></g></g></g></g><g clip-path="url(#ab994d5fdd)"><g clip-path="url(#a060b70a2f)"><g clip-path="url(#ec2f917963)"><g clip-path="url(#185dd79b57)"><g clip-path="url(#124ed03ec3)"><path fill="#302760" d="M 1392.304688 1319.824219 L 1406.289062 1261.558594 L 1499.152344 1283.847656 L 1485.167969 1342.113281 Z M 1392.304688 1319.824219 " fill-opacity="1" fill-rule="nonzero"/></g></g></g></g></g><path stroke-linecap="butt" transform="matrix(0.351985, 0.842964, -0.842964, 0.351985, 342.153081, 926.001572)" fill="none" stroke-linejoin="miter" d="M 3.056341 28.033463 C 78.013199 3.988952 138.922825 3.986412 185.789816 28.03703 " stroke="#302760" stroke-width="20" stroke-opacity="1" stroke-miterlimit="4"/><path stroke-linecap="butt" transform="matrix(0.888112, -0.213866, 0.213866, 0.888112, 415.770142, 1127.693787)" fill="none" stroke-linejoin="miter" d="M 3.338284 31.193989 C 83.160638 2.935537 143.83626 2.935424 185.351678 31.194806 " stroke="#302760" stroke-width="20" stroke-opacity="1" stroke-miterlimit="4"/><g clip-path="url(#d4d97e6d90)"><g clip-path="url(#a9a65ed159)"><g clip-path="url(#6c7d71c2a7)"><g clip-path="url(#b6351200a9)"><g clip-path="url(#0a30632fe4)"><path fill="#302760" d="M 348.023438 939.875 L 407.5625 1014.445312 L 378.554688 1037.613281 L 319.011719 963.042969 Z M 348.023438 939.875 " fill-opacity="1" fill-rule="nonzero"/></g></g></g></g></g><g clip-path="url(#7188f0a638)"><g clip-path="url(#88be33ab59)"><g clip-path="url(#71e959afe9)"><g clip-path="url(#7d9a5ff583)"><g clip-path="url(#612f8a41ae)"><path fill="#302760" d="M 523.273438 1078.757812 L 615.78125 1102.175781 L 606.664062 1138.167969 L 514.160156 1114.746094 Z M 523.273438 1078.757812 " fill-opacity="1" fill-rule="nonzero"/></g></g></g></g></g><g clip-path="url(#55e1738650)"><g clip-path="url(#3ef091498c)"><path stroke-linecap="butt" transform="matrix(0.9135, 0, 0, 0.9135, 504.397262, 601.884768)" fill="none" stroke-linejoin="miter" d="M 40.765694 0.0021353 C 18.251836 0.0021353 0.00128691 18.252685 0.00128691 40.766542 C 0.00128691 63.276123 18.251836 81.535225 40.765694 81.535225 C 63.279551 81.535225 81.534376 63.276123 81.534376 40.766542 C 81.534376 18.252685 63.279551 0.0021353 40.765694 0.0021353 Z M 40.765694 0.0021353 " stroke="#302760" stroke-width="82" stroke-opacity="1" stroke-miterlimit="4"/></g></g><g clip-path="url(#582a89970e)"><g clip-path="url(#5011513eec)"><path stroke-linecap="butt" transform="matrix(0.9135, 0, 0, 0.9135, 812.794427, 601.884768)" fill="none" stroke-linejoin="miter" d="M 40.767086 0.0021353 C 18.253229 0.0021353 0.00267943 18.252685 0.00267943 40.766542 C 0.00267943 63.276123 18.253229 81.535225 40.767086 81.535225 C 63.280943 81.535225 81.531493 63.276123 81.531493 40.766542 C 81.531493 18.252685 63.280943 0.0021353 40.767086 0.0021353 Z M 40.767086 0.0021353 " stroke="#302760" stroke-width="82" stroke-opacity="1" stroke-miterlimit="4"/></g></g></svg>